<?xml version="1.0" standalone="no"?>
<!DOCTYPE svg PUBLIC "-//W3C//DTD SVG 20010904//EN"
 "http://www.w3.org/TR/2001/REC-SVG-20010904/DTD/svg10.dtd">
<svg version="1.0" xmlns="http://www.w3.org/2000/svg"
 width="113.000000pt" height="113.000000pt" viewBox="0 0 113.000000 113.000000"
 preserveAspectRatio="xMidYMid meet">
<metadata>
Created by potrace 1.14, written by Peter Selinger 2001-2017
</metadata>
<g transform="translate(0.000000,113.000000) scale(0.100000,-0.100000)"
fill="#000000" stroke="none">
<path d="M408 808 c-25 -28 -27 -36 -25 -103 3 -71 13 -95 46 -106 11 -4 10
-8 -3 -22 -10 -9 -14 -17 -10 -17 4 0 -7 -11 -26 -25 -19 -14 -30 -25 -26 -25
4 0 1 -6 -7 -14 -9 -10 -13 -34 -11 -78 2 -79 1 -71 22 -95 23 -27 69 -37 90
-21 12 10 14 10 8 1 -4 -7 -2 -13 3 -13 6 0 11 7 11 16 0 8 4 13 8 10 5 -3 25
12 44 34 20 21 39 36 42 33 3 -4 6 1 6 10 0 9 7 17 16 17 8 0 13 3 11 8 -6 9
19 33 27 25 3 -4 6 1 6 10 0 9 6 17 13 17 8 0 20 11 27 25 7 14 18 25 24 26 6
0 24 16 40 35 25 30 29 43 30 105 2 63 -1 73 -21 89 -13 10 -23 23 -23 30 0 6
-4 8 -10 5 -5 -3 -18 -1 -29 4 -14 8 -22 7 -31 -4 -7 -8 -17 -13 -23 -12 -7 1
-11 -4 -9 -11 1 -8 -2 -11 -7 -7 -6 3 -15 -3 -20 -14 -18 -33 -39 -33 -37 0 1
16 -2 29 -7 29 -4 0 -6 4 -3 9 3 5 -5 17 -19 27 -13 10 -22 20 -20 23 2 4 -16
7 -38 7 -35 1 -47 -4 -69 -28z m87 -16 c6 -4 16 -17 22 -29 11 -19 10 -25 -8
-41 -21 -20 -65 -26 -75 -11 -30 48 18 113 61 81z m200 -41 c-3 -5 3 -12 14
-16 25 -8 33 -42 14 -60 -8 -8 -12 -15 -9 -15 3 0 -5 -11 -17 -23 -12 -13 -26
-23 -32 -23 -5 1 -9 -5 -7 -11 1 -7 -2 -13 -7 -13 -14 0 -91 -77 -91 -91 0 -7
-3 -10 -6 -6 -4 3 -24 -12 -44 -34 -48 -49 -78 -61 -106 -42 -28 18 -23 57 10
88 14 13 26 29 26 35 0 5 4 9 8 7 4 -1 42 33 84 75 41 42 78 74 82 71 3 -4 6
0 6 8 0 8 17 25 38 37 42 24 45 26 37 13z"/>
</g>
</svg>
